<mxfile host="app.diagrams.net" modified="2023-05-21T23:27:14.200Z" agent="Mozilla/5.0 (Windows NT 10.0; Win64; x64) AppleWebKit/537.36 (KHTML, like Gecko) Chrome/113.0.0.0 Safari/537.36" etag="5G_G40drS3Eqh2_DCXDZ" version="21.2.1" type="github">
  <diagram name="Page-1" id="b33cb84f-bf7a-9ccf-f142-242d16432e5d">
    <mxGraphModel dx="1257" dy="646" grid="1" gridSize="10" guides="1" tooltips="1" connect="1" arrows="1" fold="1" page="1" pageScale="1.5" pageWidth="1169" pageHeight="826" background="none" math="0" shadow="0">
      <root>
        <mxCell id="0" style=";html=1;" />
        <mxCell id="1" style=";html=1;" parent="0" />
        <mxCell id="mFiFW0WWoARfUXkECbdo-1" value="" style="rounded=0;whiteSpace=wrap;html=1;" vertex="1" parent="1">
          <mxGeometry x="200" y="110" width="1010" height="810" as="geometry" />
        </mxCell>
        <mxCell id="2a5a01dd2e413fbf-1" value="" style="ellipse;whiteSpace=wrap;html=1;rounded=0;shadow=0;strokeWidth=1;fillColor=none;fontSize=24;align=right" parent="1" vertex="1">
          <mxGeometry x="270" y="160" width="190" height="80" as="geometry" />
        </mxCell>
        <mxCell id="2a5a01dd2e413fbf-47" value="Pedir Água" style="text;html=1;strokeColor=none;fillColor=none;align=center;verticalAlign=middle;whiteSpace=wrap;rounded=0;shadow=0;fontSize=20;" parent="1" vertex="1">
          <mxGeometry x="305" y="185" width="120" height="30" as="geometry" />
        </mxCell>
        <mxCell id="mFiFW0WWoARfUXkECbdo-2" value="Sistema" style="text;html=1;strokeColor=none;fillColor=none;align=center;verticalAlign=middle;whiteSpace=wrap;rounded=0;fontStyle=1" vertex="1" parent="1">
          <mxGeometry x="220" y="130" width="60" height="30" as="geometry" />
        </mxCell>
        <mxCell id="mFiFW0WWoARfUXkECbdo-13" style="edgeStyle=orthogonalEdgeStyle;rounded=0;orthogonalLoop=1;jettySize=auto;html=1;entryX=0.5;entryY=0;entryDx=0;entryDy=0;entryPerimeter=0;" edge="1" parent="1" source="mFiFW0WWoARfUXkECbdo-5" target="mFiFW0WWoARfUXkECbdo-6">
          <mxGeometry relative="1" as="geometry">
            <Array as="points">
              <mxPoint x="1305" y="30" />
              <mxPoint x="45" y="30" />
            </Array>
          </mxGeometry>
        </mxCell>
        <mxCell id="mFiFW0WWoARfUXkECbdo-5" value="Responsável" style="shape=umlActor;verticalLabelPosition=bottom;verticalAlign=top;html=1;outlineConnect=0;" vertex="1" parent="1">
          <mxGeometry x="1290" y="210" width="30" height="60" as="geometry" />
        </mxCell>
        <mxCell id="mFiFW0WWoARfUXkECbdo-6" value="Paciente" style="shape=umlActor;verticalLabelPosition=bottom;verticalAlign=top;html=1;outlineConnect=0;" vertex="1" parent="1">
          <mxGeometry x="30" y="560" width="30" height="70" as="geometry" />
        </mxCell>
        <mxCell id="mFiFW0WWoARfUXkECbdo-14" value="" style="ellipse;whiteSpace=wrap;html=1;rounded=0;shadow=0;strokeWidth=1;fillColor=none;fontSize=24;align=right" vertex="1" parent="1">
          <mxGeometry x="270" y="275" width="190" height="80" as="geometry" />
        </mxCell>
        <mxCell id="mFiFW0WWoARfUXkECbdo-15" value="Pedir comida" style="text;html=1;strokeColor=none;fillColor=none;align=center;verticalAlign=middle;whiteSpace=wrap;rounded=0;shadow=0;fontSize=20;" vertex="1" parent="1">
          <mxGeometry x="310" y="300" width="120" height="30" as="geometry" />
        </mxCell>
        <mxCell id="mFiFW0WWoARfUXkECbdo-16" value="" style="ellipse;whiteSpace=wrap;html=1;rounded=0;shadow=0;strokeWidth=1;fillColor=none;fontSize=24;align=right" vertex="1" parent="1">
          <mxGeometry x="270" y="380" width="190" height="80" as="geometry" />
        </mxCell>
        <mxCell id="mFiFW0WWoARfUXkECbdo-17" value="Pedir para ir ao banheiro&amp;nbsp;" style="text;html=1;strokeColor=none;fillColor=none;align=center;verticalAlign=middle;whiteSpace=wrap;rounded=0;shadow=0;fontSize=20;" vertex="1" parent="1">
          <mxGeometry x="305" y="405" width="120" height="30" as="geometry" />
        </mxCell>
        <mxCell id="mFiFW0WWoARfUXkECbdo-18" value="" style="ellipse;whiteSpace=wrap;html=1;rounded=0;shadow=0;strokeWidth=1;fillColor=none;fontSize=24;align=right" vertex="1" parent="1">
          <mxGeometry x="260" y="490" width="190" height="80" as="geometry" />
        </mxCell>
        <mxCell id="mFiFW0WWoARfUXkECbdo-19" value="Informar que sente dor" style="text;html=1;strokeColor=none;fillColor=none;align=center;verticalAlign=middle;whiteSpace=wrap;rounded=0;shadow=0;fontSize=20;" vertex="1" parent="1">
          <mxGeometry x="295" y="515" width="120" height="30" as="geometry" />
        </mxCell>
        <mxCell id="mFiFW0WWoARfUXkECbdo-20" value="" style="ellipse;whiteSpace=wrap;html=1;rounded=0;shadow=0;strokeWidth=1;fillColor=none;fontSize=24;align=right" vertex="1" parent="1">
          <mxGeometry x="260" y="595" width="190" height="80" as="geometry" />
        </mxCell>
        <mxCell id="mFiFW0WWoARfUXkECbdo-21" value="Pedir para dormir" style="text;html=1;strokeColor=none;fillColor=none;align=center;verticalAlign=middle;whiteSpace=wrap;rounded=0;shadow=0;fontSize=20;" vertex="1" parent="1">
          <mxGeometry x="295" y="620" width="120" height="30" as="geometry" />
        </mxCell>
        <mxCell id="mFiFW0WWoARfUXkECbdo-22" value="" style="ellipse;whiteSpace=wrap;html=1;rounded=0;shadow=0;strokeWidth=1;fillColor=none;fontSize=24;align=right" vertex="1" parent="1">
          <mxGeometry x="260" y="700" width="190" height="80" as="geometry" />
        </mxCell>
        <mxCell id="mFiFW0WWoARfUXkECbdo-23" value="Informar que sente medo" style="text;html=1;strokeColor=none;fillColor=none;align=center;verticalAlign=middle;whiteSpace=wrap;rounded=0;shadow=0;fontSize=20;" vertex="1" parent="1">
          <mxGeometry x="295" y="725" width="120" height="30" as="geometry" />
        </mxCell>
        <mxCell id="mFiFW0WWoARfUXkECbdo-31" value="" style="endArrow=classic;html=1;rounded=0;entryX=0;entryY=0.5;entryDx=0;entryDy=0;" edge="1" parent="1" target="2a5a01dd2e413fbf-1">
          <mxGeometry width="50" height="50" relative="1" as="geometry">
            <mxPoint x="70" y="590" as="sourcePoint" />
            <mxPoint x="530" y="360" as="targetPoint" />
          </mxGeometry>
        </mxCell>
        <mxCell id="mFiFW0WWoARfUXkECbdo-32" value="" style="endArrow=classic;html=1;rounded=0;entryX=0;entryY=0.5;entryDx=0;entryDy=0;" edge="1" parent="1" target="mFiFW0WWoARfUXkECbdo-14">
          <mxGeometry width="50" height="50" relative="1" as="geometry">
            <mxPoint x="70" y="590" as="sourcePoint" />
            <mxPoint x="280" y="210" as="targetPoint" />
          </mxGeometry>
        </mxCell>
        <mxCell id="mFiFW0WWoARfUXkECbdo-33" value="" style="endArrow=classic;html=1;rounded=0;entryX=0;entryY=0.5;entryDx=0;entryDy=0;" edge="1" parent="1" target="mFiFW0WWoARfUXkECbdo-16">
          <mxGeometry width="50" height="50" relative="1" as="geometry">
            <mxPoint x="70" y="589" as="sourcePoint" />
            <mxPoint x="280" y="325" as="targetPoint" />
          </mxGeometry>
        </mxCell>
        <mxCell id="mFiFW0WWoARfUXkECbdo-34" value="" style="endArrow=classic;html=1;rounded=0;entryX=0;entryY=0.5;entryDx=0;entryDy=0;" edge="1" parent="1" target="mFiFW0WWoARfUXkECbdo-18">
          <mxGeometry width="50" height="50" relative="1" as="geometry">
            <mxPoint x="70" y="590" as="sourcePoint" />
            <mxPoint x="280" y="430" as="targetPoint" />
          </mxGeometry>
        </mxCell>
        <mxCell id="mFiFW0WWoARfUXkECbdo-35" value="" style="endArrow=classic;html=1;rounded=0;entryX=0;entryY=0.5;entryDx=0;entryDy=0;" edge="1" parent="1" target="mFiFW0WWoARfUXkECbdo-20">
          <mxGeometry width="50" height="50" relative="1" as="geometry">
            <mxPoint x="70" y="590" as="sourcePoint" />
            <mxPoint x="270" y="540" as="targetPoint" />
          </mxGeometry>
        </mxCell>
        <mxCell id="mFiFW0WWoARfUXkECbdo-36" value="" style="endArrow=classic;html=1;rounded=0;entryX=0;entryY=0.5;entryDx=0;entryDy=0;" edge="1" parent="1" target="mFiFW0WWoARfUXkECbdo-22">
          <mxGeometry width="50" height="50" relative="1" as="geometry">
            <mxPoint x="70" y="590" as="sourcePoint" />
            <mxPoint x="270" y="645" as="targetPoint" />
          </mxGeometry>
        </mxCell>
        <mxCell id="mFiFW0WWoARfUXkECbdo-44" value="" style="ellipse;whiteSpace=wrap;html=1;rounded=0;shadow=0;strokeWidth=1;fillColor=none;fontSize=24;align=right" vertex="1" parent="1">
          <mxGeometry x="920" y="160" width="200" height="80" as="geometry" />
        </mxCell>
        <mxCell id="mFiFW0WWoARfUXkECbdo-45" value="Registrar Paciente" style="text;html=1;strokeColor=none;fillColor=none;align=center;verticalAlign=middle;whiteSpace=wrap;rounded=0;shadow=0;fontSize=20;" vertex="1" parent="1">
          <mxGeometry x="942.5" y="185" width="155" height="30" as="geometry" />
        </mxCell>
        <mxCell id="mFiFW0WWoARfUXkECbdo-46" value="" style="ellipse;whiteSpace=wrap;html=1;rounded=0;shadow=0;strokeWidth=1;fillColor=none;fontSize=24;align=right" vertex="1" parent="1">
          <mxGeometry x="918" y="279" width="200" height="80" as="geometry" />
        </mxCell>
        <mxCell id="mFiFW0WWoARfUXkECbdo-47" value="Alterar cadastro paciente" style="text;html=1;strokeColor=none;fillColor=none;align=center;verticalAlign=middle;whiteSpace=wrap;rounded=0;shadow=0;fontSize=20;" vertex="1" parent="1">
          <mxGeometry x="940.5" y="304" width="155" height="30" as="geometry" />
        </mxCell>
        <mxCell id="mFiFW0WWoARfUXkECbdo-48" value="" style="ellipse;whiteSpace=wrap;html=1;rounded=0;shadow=0;strokeWidth=1;fillColor=none;fontSize=24;align=right" vertex="1" parent="1">
          <mxGeometry x="918" y="400" width="200" height="80" as="geometry" />
        </mxCell>
        <mxCell id="mFiFW0WWoARfUXkECbdo-49" value="Excluir cadastro paciente" style="text;html=1;strokeColor=none;fillColor=none;align=center;verticalAlign=middle;whiteSpace=wrap;rounded=0;shadow=0;fontSize=20;" vertex="1" parent="1">
          <mxGeometry x="940.5" y="425" width="155" height="30" as="geometry" />
        </mxCell>
        <mxCell id="mFiFW0WWoARfUXkECbdo-50" value="" style="ellipse;whiteSpace=wrap;html=1;rounded=0;shadow=0;strokeWidth=1;fillColor=none;fontSize=24;align=right" vertex="1" parent="1">
          <mxGeometry x="910" y="500" width="210" height="100" as="geometry" />
        </mxCell>
        <mxCell id="mFiFW0WWoARfUXkECbdo-51" value="Emitir relatório comportamental paciente" style="text;html=1;strokeColor=none;fillColor=none;align=center;verticalAlign=middle;whiteSpace=wrap;rounded=0;shadow=0;fontSize=20;" vertex="1" parent="1">
          <mxGeometry x="940.5" y="535" width="155" height="30" as="geometry" />
        </mxCell>
        <mxCell id="mFiFW0WWoARfUXkECbdo-52" value="" style="ellipse;whiteSpace=wrap;html=1;rounded=0;shadow=0;strokeWidth=1;fillColor=none;fontSize=24;align=right" vertex="1" parent="1">
          <mxGeometry x="910" y="625" width="210" height="100" as="geometry" />
        </mxCell>
        <mxCell id="mFiFW0WWoARfUXkECbdo-53" value="Enviar relatório comportamental paciente" style="text;html=1;strokeColor=none;fillColor=none;align=center;verticalAlign=middle;whiteSpace=wrap;rounded=0;shadow=0;fontSize=20;" vertex="1" parent="1">
          <mxGeometry x="940.5" y="660" width="155" height="30" as="geometry" />
        </mxCell>
        <mxCell id="mFiFW0WWoARfUXkECbdo-54" value="" style="endArrow=classic;html=1;rounded=0;exitX=0;exitY=0.3333333333333333;exitDx=0;exitDy=0;exitPerimeter=0;entryX=1;entryY=0.5;entryDx=0;entryDy=0;" edge="1" parent="1" source="mFiFW0WWoARfUXkECbdo-5" target="mFiFW0WWoARfUXkECbdo-44">
          <mxGeometry width="50" height="50" relative="1" as="geometry">
            <mxPoint x="770" y="310" as="sourcePoint" />
            <mxPoint x="820" y="260" as="targetPoint" />
          </mxGeometry>
        </mxCell>
        <mxCell id="mFiFW0WWoARfUXkECbdo-55" value="" style="endArrow=classic;html=1;rounded=0;entryX=1;entryY=0.5;entryDx=0;entryDy=0;" edge="1" parent="1" target="mFiFW0WWoARfUXkECbdo-46">
          <mxGeometry width="50" height="50" relative="1" as="geometry">
            <mxPoint x="1290" y="230" as="sourcePoint" />
            <mxPoint x="1130" y="210" as="targetPoint" />
          </mxGeometry>
        </mxCell>
        <mxCell id="mFiFW0WWoARfUXkECbdo-56" value="" style="endArrow=classic;html=1;rounded=0;entryX=1;entryY=0.5;entryDx=0;entryDy=0;exitX=0;exitY=0.3333333333333333;exitDx=0;exitDy=0;exitPerimeter=0;" edge="1" parent="1" source="mFiFW0WWoARfUXkECbdo-5" target="mFiFW0WWoARfUXkECbdo-48">
          <mxGeometry width="50" height="50" relative="1" as="geometry">
            <mxPoint x="1300" y="240" as="sourcePoint" />
            <mxPoint x="1128" y="329" as="targetPoint" />
          </mxGeometry>
        </mxCell>
        <mxCell id="mFiFW0WWoARfUXkECbdo-57" value="" style="endArrow=classic;html=1;rounded=0;entryX=1;entryY=0.5;entryDx=0;entryDy=0;exitX=0;exitY=0.3333333333333333;exitDx=0;exitDy=0;exitPerimeter=0;" edge="1" parent="1" source="mFiFW0WWoARfUXkECbdo-5" target="mFiFW0WWoARfUXkECbdo-50">
          <mxGeometry width="50" height="50" relative="1" as="geometry">
            <mxPoint x="1300" y="240" as="sourcePoint" />
            <mxPoint x="1128" y="450" as="targetPoint" />
          </mxGeometry>
        </mxCell>
        <mxCell id="mFiFW0WWoARfUXkECbdo-58" value="" style="endArrow=classic;html=1;rounded=0;entryX=0.987;entryY=0.404;entryDx=0;entryDy=0;entryPerimeter=0;" edge="1" parent="1" target="mFiFW0WWoARfUXkECbdo-52">
          <mxGeometry width="50" height="50" relative="1" as="geometry">
            <mxPoint x="1290" y="230" as="sourcePoint" />
            <mxPoint x="1130" y="560" as="targetPoint" />
          </mxGeometry>
        </mxCell>
        <mxCell id="mFiFW0WWoARfUXkECbdo-59" value="" style="ellipse;whiteSpace=wrap;html=1;rounded=0;shadow=0;strokeWidth=1;fillColor=none;fontSize=24;align=right" vertex="1" parent="1">
          <mxGeometry x="593" y="320" width="210" height="100" as="geometry" />
        </mxCell>
        <mxCell id="mFiFW0WWoARfUXkECbdo-60" value="Receber chamados paciente" style="text;html=1;strokeColor=none;fillColor=none;align=center;verticalAlign=middle;whiteSpace=wrap;rounded=0;shadow=0;fontSize=20;" vertex="1" parent="1">
          <mxGeometry x="623.5" y="355" width="155" height="30" as="geometry" />
        </mxCell>
        <mxCell id="mFiFW0WWoARfUXkECbdo-61" value="" style="ellipse;whiteSpace=wrap;html=1;rounded=0;shadow=0;strokeWidth=1;fillColor=none;fontSize=24;align=right" vertex="1" parent="1">
          <mxGeometry x="593" y="539" width="210" height="100" as="geometry" />
        </mxCell>
        <mxCell id="mFiFW0WWoARfUXkECbdo-62" value="&lt;br&gt;Enviar chamados paciente" style="text;html=1;strokeColor=none;fillColor=none;align=center;verticalAlign=middle;whiteSpace=wrap;rounded=0;shadow=0;fontSize=20;" vertex="1" parent="1">
          <mxGeometry x="620.5" y="559" width="155" height="30" as="geometry" />
        </mxCell>
        <mxCell id="mFiFW0WWoARfUXkECbdo-63" value="" style="endArrow=classic;html=1;rounded=0;exitX=1;exitY=0.5;exitDx=0;exitDy=0;entryX=0;entryY=0;entryDx=0;entryDy=0;" edge="1" parent="1" source="2a5a01dd2e413fbf-1" target="mFiFW0WWoARfUXkECbdo-59">
          <mxGeometry width="50" height="50" relative="1" as="geometry">
            <mxPoint x="543" y="420" as="sourcePoint" />
            <mxPoint x="593" y="370" as="targetPoint" />
          </mxGeometry>
        </mxCell>
        <mxCell id="mFiFW0WWoARfUXkECbdo-64" value="" style="endArrow=classic;html=1;rounded=0;exitX=1;exitY=0.5;exitDx=0;exitDy=0;" edge="1" parent="1" source="mFiFW0WWoARfUXkECbdo-14">
          <mxGeometry width="50" height="50" relative="1" as="geometry">
            <mxPoint x="470" y="210" as="sourcePoint" />
            <mxPoint x="600" y="370" as="targetPoint" />
          </mxGeometry>
        </mxCell>
        <mxCell id="mFiFW0WWoARfUXkECbdo-66" value="" style="endArrow=classic;html=1;rounded=0;exitX=1;exitY=0.5;exitDx=0;exitDy=0;" edge="1" parent="1" source="mFiFW0WWoARfUXkECbdo-16">
          <mxGeometry width="50" height="50" relative="1" as="geometry">
            <mxPoint x="470" y="325" as="sourcePoint" />
            <mxPoint x="600" y="380" as="targetPoint" />
          </mxGeometry>
        </mxCell>
        <mxCell id="mFiFW0WWoARfUXkECbdo-67" value="" style="endArrow=classic;html=1;rounded=0;exitX=0.986;exitY=0.371;exitDx=0;exitDy=0;exitPerimeter=0;" edge="1" parent="1" source="mFiFW0WWoARfUXkECbdo-18">
          <mxGeometry width="50" height="50" relative="1" as="geometry">
            <mxPoint x="470" y="430" as="sourcePoint" />
            <mxPoint x="610" y="390" as="targetPoint" />
          </mxGeometry>
        </mxCell>
        <mxCell id="mFiFW0WWoARfUXkECbdo-68" value="" style="endArrow=classic;html=1;rounded=0;exitX=1.008;exitY=0.398;exitDx=0;exitDy=0;exitPerimeter=0;" edge="1" parent="1" source="mFiFW0WWoARfUXkECbdo-20">
          <mxGeometry width="50" height="50" relative="1" as="geometry">
            <mxPoint x="457" y="530" as="sourcePoint" />
            <mxPoint x="620" y="400" as="targetPoint" />
          </mxGeometry>
        </mxCell>
        <mxCell id="mFiFW0WWoARfUXkECbdo-69" value="" style="endArrow=classic;html=1;rounded=0;exitX=1;exitY=0.5;exitDx=0;exitDy=0;" edge="1" parent="1" source="mFiFW0WWoARfUXkECbdo-22">
          <mxGeometry width="50" height="50" relative="1" as="geometry">
            <mxPoint x="462" y="637" as="sourcePoint" />
            <mxPoint x="630" y="410" as="targetPoint" />
          </mxGeometry>
        </mxCell>
        <mxCell id="mFiFW0WWoARfUXkECbdo-72" value="" style="endArrow=classic;html=1;rounded=0;exitX=1;exitY=0.5;exitDx=0;exitDy=0;" edge="1" parent="1">
          <mxGeometry width="50" height="50" relative="1" as="geometry">
            <mxPoint x="700" y="420" as="sourcePoint" />
            <mxPoint x="700" y="540" as="targetPoint" />
          </mxGeometry>
        </mxCell>
        <mxCell id="mFiFW0WWoARfUXkECbdo-73" value="" style="ellipse;whiteSpace=wrap;html=1;rounded=0;shadow=0;strokeWidth=1;fillColor=none;fontSize=24;align=right" vertex="1" parent="1">
          <mxGeometry x="915" y="760" width="210" height="100" as="geometry" />
        </mxCell>
        <mxCell id="mFiFW0WWoARfUXkECbdo-74" value="&lt;br&gt;Receber chamados paciente" style="text;html=1;strokeColor=none;fillColor=none;align=center;verticalAlign=middle;whiteSpace=wrap;rounded=0;shadow=0;fontSize=20;" vertex="1" parent="1">
          <mxGeometry x="942.5" y="780" width="155" height="30" as="geometry" />
        </mxCell>
        <mxCell id="mFiFW0WWoARfUXkECbdo-75" value="" style="endArrow=classic;html=1;rounded=0;exitX=1;exitY=0.5;exitDx=0;exitDy=0;entryX=0;entryY=0.5;entryDx=0;entryDy=0;" edge="1" parent="1" target="mFiFW0WWoARfUXkECbdo-73">
          <mxGeometry width="50" height="50" relative="1" as="geometry">
            <mxPoint x="690" y="640" as="sourcePoint" />
            <mxPoint x="690" y="760" as="targetPoint" />
          </mxGeometry>
        </mxCell>
        <mxCell id="mFiFW0WWoARfUXkECbdo-76" value="" style="endArrow=classic;html=1;rounded=0;exitX=0.997;exitY=0.397;exitDx=0;exitDy=0;exitPerimeter=0;" edge="1" parent="1" source="mFiFW0WWoARfUXkECbdo-73">
          <mxGeometry width="50" height="50" relative="1" as="geometry">
            <mxPoint x="1118" y="755" as="sourcePoint" />
            <mxPoint x="1300" y="290" as="targetPoint" />
          </mxGeometry>
        </mxCell>
      </root>
    </mxGraphModel>
  </diagram>
</mxfile>
